Coordinates
version=1
nRows=14
nColumns=33
inDegrees=yes

Units are S.I. units (second, meters, Newtons, ...)
Angles are in degrees.

endheader
time	ground_thorax_rot_x	ground_thorax_rot_y	ground_thorax_rot_z	ground_thorax_tx	ground_thorax_ty	ground_thorax_tz	clav_prot_r	clav_elev_r	scapula_abduction_r	scapula_elevation_r	scapula_upward_rot_r	scapula_winging_r	shoulder_elv_r	plane_of_elev_r	axial_rot_r	elbow_flexion_r	pro_sup_r	wrist_flex_r	wrist_dev_r	clav_prot_l	clav_elev_l	scapula_abduction_l	scapula_elevation_l	scapula_upward_rot_l	scapula_winging_l	shoulder_elv_l	plane_of_elev_l	axial_rot_l	elbow_flexion_l	pro_sup_l	wrist_flex_l	wrist_dev_l
      5.47000000	    -15.91153450	    -35.26400906	     61.04269703	     12.83293655	    783.21396368	    -41.50569013	     29.75064216	    -45.00000000	     39.59552347	    -45.00000000	    -45.00000000	  -2623.36297732	  -2266.94694807	    160.71269842	     39.15806790	   3240.64147421	   -186.51302014	     11.25058062	     12.87073228	     -1.66073346	     30.58169645	    -26.49063886	    -45.00000000	    -45.00000000	  -3157.20400769	  -2971.11755017	    133.78367685	   -105.47682593	    348.32874040	     43.99405863	     12.88623129	    -14.57901704
      5.48000000	    -15.71547999	    -35.26635625	     61.26869674	     12.95654136	    783.03707804	    -41.56571360	     29.77060864	    -45.00000000	     39.59710348	    -45.00000000	    -45.00000000	  -2623.35294062	  -2266.83293235	    160.78938745	     39.66396534	   3240.60965223	   -187.39755490	     11.38758383	     12.74138537	     -1.69303605	     30.36517843	    -26.16370458	    -45.00000000	    -45.00000000	  -3157.35434261	  -2970.93132328	    133.76225971	   -105.30957673	    348.34678134	     43.73510136	     12.71024378	    -14.25956983
      5.49000000	    -15.90647748	    -35.17618507	     61.06240439	     13.03482891	    782.91941160	    -41.61810313	     29.87788850	    -45.00000000	     39.65042124	    -45.00000000	    -45.00000000	  -2623.50016460	  -2266.98623161	    160.67917757	     39.84352246	   3240.48924713	   -187.99625784	     10.85044359	     12.96191573	     -1.88491108	     30.65632153	    -26.56194650	    -45.00000000	    -45.00000000	  -3157.13695674	  -2971.10865756	    133.91317828	   -105.39091653	    348.19392781	     43.47229273	     13.01773485	    -14.69828570
      5.50000000	    -15.73413077	    -35.12318036	     61.27198661	     13.07550224	    782.84222669	    -41.67199829	     29.74259678	    -45.00000000	     39.73044781	    -45.00000000	    -45.00000000	  -2623.35682296	  -2266.83573044	    160.93420156	     39.99063422	   3240.60442925	   -188.69234322	     11.18782461	     12.79143293	     -1.66773544	     30.37092462	    -26.40353051	    -45.00000000	    -45.00000000	  -3157.21548763	  -2971.07225716	    133.86171017	   -105.56427814	    348.28000349	     43.28849676	     12.79735057	    -14.24071141
      5.51000000	    -15.72335195	    -35.07774291	     61.26394508	     13.07540915	    782.84215745	    -41.67222693	     29.74443542	    -45.00000000	     39.72974226	    -45.00000000	    -45.00000000	  -2623.35262129	  -2266.83476200	    160.92636357	     39.99262046	   3240.60500173	   -188.69395622	     11.18426174	     12.79083159	     -1.66838686	     30.37329505	    -26.39282443	    -45.00000000	    -45.00000000	  -3157.19160480	  -2971.05415072	    133.88172906	   -105.56870552	    348.28644362	     43.28637811	     12.79487153	    -14.24258196
      5.52000000	    -15.87442047	    -34.97619739	     61.11914262	     12.97345347	    782.87419737	    -41.76293925	     29.83051015	    -45.00000000	     39.65914995	    -45.00000000	    -45.00000000	  -2623.41560709	  -2266.80691628	    160.79359282	     40.14183860	   3240.56952534	   -189.23323249	     10.92737278	     12.77633066	     -1.70997357	     30.57645162	    -26.48029422	    -45.00000000	    -45.00000000	  -3157.15223892	  -2971.00856585	    133.83337346	   -105.75361634	    348.27958337	     43.00074527	     12.85530875	    -14.46199735
      5.53000000	    -15.79148943	    -34.89933605	     61.16567171	     12.82264992	    782.98100148	    -41.80515185	     29.79766432	    -45.00000000	     39.54816588	    -45.00000000	    -45.00000000	  -2623.38489987	  -2266.60691194	    160.76570395	     40.06369976	   3240.59206897	   -189.67334015	     11.14523583	     12.74018890	     -1.54102233	     30.41410994	    -26.29088648	    -45.00000000	    -45.00000000	  -3157.13034117	  -2971.01841727	    133.67844329	   -105.84760228	    348.54875175	     42.81927889	     12.68272731	    -14.20985522
      5.54000000	    -15.92637732	    -34.80925765	     61.01620233	     12.59360890	    783.15597009	    -41.84943793	     29.86010551	    -45.00000000	     39.64532712	    -45.00000000	    -45.00000000	  -2623.46150128	  -2266.69050260	    160.68649686	     40.15731110	   3240.49235841	   -189.96234148	     10.74179083	     12.76881465	     -1.73748410	     30.69738026	    -26.63002798	    -45.00000000	    -45.00000000	  -3157.01179477	  -2971.05048837	    133.81540869	   -105.75884276	    348.42375368	     42.58327004	     12.90125437	    -14.66971399
      5.55000000	    -15.89102607	    -34.82183908	     61.05965556	     12.29292211	    783.39534893	    -41.89452789	     29.76784568	    -45.00000000	     39.69866644	    -45.00000000	    -45.00000000	  -2623.31084131	  -2266.60070880	    160.78005582	     40.02247659	   3240.65508872	   -190.32450379	     11.07458192	     12.78407880	     -1.50785425	     30.43337865	    -26.52396088	    -45.00000000	    -45.00000000	  -3156.94801281	  -2971.01106184	    133.74096892	   -105.85573242	    348.53124006	     42.47506870	     12.69409093	    -14.22096415
      5.56000000	    -16.12014845	    -34.74912651	     60.79820950	     11.92125325	    783.70167067	    -41.93956101	     29.87205026	    -45.00000000	     39.66718233	    -45.00000000	    -45.00000000	  -2623.42721513	  -2266.63936927	    160.58843960	     40.01511451	   3240.54484756	   -190.49622678	     10.64307379	     12.77980751	     -1.68245325	     30.78405888	    -26.69685985	    -45.00000000	    -45.00000000	  -3156.86846040	  -2970.88987701	    133.75246868	   -105.81372254	    348.47473061	     42.29115512	     12.87197943	    -14.74001874
      5.57000000	    -16.07027315	    -34.75416886	     60.85538083	     11.48027928	    784.07647602	    -41.98238132	     29.69554662	    -45.00000000	     39.79909193	    -45.00000000	    -45.00000000	  -2623.23732255	  -2266.51924519	    160.79354965	     39.76724817	   3240.72473120	   -190.77847573	     11.15071584	     12.84973868	     -1.37235939	     30.41789365	    -26.75106026	    -45.00000000	    -45.00000000	  -3156.74152487	  -2970.87456451	    133.70299876	   -105.83972087	    348.54911875	     42.28156474	     12.61184566	    -14.12520598
      5.58000000	    -16.23025442	    -34.69186714	     60.74389576	     10.97372766	    784.51959315	    -42.01976848	     29.75236401	    -45.00000000	     39.73945337	    -45.00000000	    -45.00000000	  -2623.33293252	  -2266.53385814	    160.69379453	     39.63801243	   3240.57966703	   -190.91291731	     10.84893321	     12.79948279	     -1.49897142	     30.69883883	    -26.79719402	    -45.00000000	    -45.00000000	  -3156.76163659	  -2970.70350971	    133.75336994	   -105.77234954	    348.59038614	     42.17308454	     12.70415868	    -14.53864996
      5.59000000	    -16.66688960	    -34.56372473	     60.23590775	     10.40196000	    785.03196993	    -42.04913144	     29.63346837	    -45.00000000	     39.46942211	    -45.00000000	    -45.00000000	  -2623.26422583	  -2266.44263418	    160.45372151	     39.56250543	   3240.60480149	   -191.00336473	     10.80027412	     13.00414438	     -1.43826744	     30.69177842	    -27.28885620	    -45.00000000	    -45.00000000	  -3156.38697476	  -2970.75239219	    133.53241479	   -105.57777997	    348.54029855	     42.16230038	     12.78683276	    -14.61036298
      5.60000000	    -16.46504896	    -34.58709620	     60.41910585	      9.76408632	    785.61377496	    -42.06845649	     29.41316857	    -45.00000000	     39.77406264	    -45.00000000	    -45.00000000	  -2623.23334857	  -2266.30292840	    160.66330620	     38.97530662	   3240.50324915	   -191.16022258	     10.91965049	     12.70057671	     -1.16949525	     30.85500198	    -27.03505162	    -45.00000000	    -45.00000000	  -3156.68628488	  -2970.55149409	    133.74082769	   -105.48598042	    348.65640491	     42.15069074	     12.61887494	    -14.61191634
